<svg width="190" height="30" viewBox="0 0 190 30" fill="none" xmlns="http://www.w3.org/2000/svg">
<g clip-path="url(#clip0_2103_6434)">
<g clip-path="url(#clip1_2103_6434)">
<g clip-path="url(#clip2_2103_6434)">
<mask id="mask0_2103_6434" style="mask-type:luminance" maskUnits="userSpaceOnUse" x="45" y="0" width="99" height="30">
<path d="M143.9 0.325684H45.5V29.8377H143.9V0.325684Z" fill="white"/>
</mask>
<g mask="url(#mask0_2103_6434)">
<path d="M60.256 0.325684C57.3376 0.325881 54.4847 1.19147 52.0583 2.813C49.6318 4.43453 47.7406 6.73918 46.6239 9.4355C45.5072 12.1318 45.2152 15.0987 45.7846 17.961C46.3541 20.8234 47.7596 23.4525 49.8233 25.5161C51.887 27.5797 54.5162 28.9849 57.3786 29.5542C60.241 30.1235 63.2078 29.8312 65.9041 28.7144C68.6003 27.5975 70.9049 25.7062 72.5262 23.2796C74.1476 20.853 75.013 18.0001 75.013 15.0817C75.013 13.1438 74.6313 11.2249 73.8897 9.43458C73.148 7.64423 72.061 6.0175 70.6907 4.64726C69.3204 3.27703 67.6936 2.19013 65.9032 1.44863C64.1128 0.707131 62.1939 0.325552 60.256 0.325684ZM67.023 21.6077C66.9596 21.7105 66.8767 21.7998 66.7788 21.8705C66.681 21.9412 66.5701 21.9919 66.4526 22.0198C66.3352 22.0477 66.2134 22.0521 66.0942 22.0329C65.975 22.0136 65.8607 21.9711 65.758 21.9077C62.293 19.7917 57.932 19.3077 52.795 20.4857C52.5571 20.5399 52.3074 20.4974 52.1008 20.3676C51.8942 20.2377 51.7477 20.0311 51.6935 19.7932C51.6392 19.5553 51.6817 19.3056 51.8116 19.099C51.9415 18.8924 52.1481 18.7459 52.386 18.6917C58.007 17.4077 62.829 17.9607 66.718 20.3377C66.8218 20.4007 66.912 20.4837 66.9836 20.5817C67.0552 20.6798 67.1066 20.7911 67.135 20.9092C67.1633 21.0272 67.168 21.1497 67.1488 21.2696C67.1296 21.3895 67.0868 21.5044 67.023 21.6077ZM68.829 17.5897C68.6695 17.8497 68.4133 18.0359 68.1166 18.1071C67.82 18.1784 67.5072 18.1289 67.247 17.9697C62.768 15.4726 57.4816 14.8537 52.547 16.2487C52.2552 16.3379 51.94 16.3076 51.6706 16.1644C51.4012 16.0213 51.1997 15.7769 51.1105 15.4852C51.0212 15.1934 51.0515 14.8782 51.1947 14.6088C51.3379 14.3394 51.5822 14.1379 51.874 14.0487C54.6278 13.2559 57.5123 13.0209 60.3581 13.3574C63.204 13.694 65.954 14.5954 68.447 16.0087C68.5758 16.0876 68.6877 16.1912 68.7765 16.3135C68.8653 16.4357 68.929 16.5742 68.9642 16.7212C68.9994 16.8681 69.0053 17.0205 68.9816 17.1697C68.9579 17.3189 68.905 17.4619 68.826 17.5907L68.829 17.5897ZM68.984 13.4057C64.228 10.5807 56.384 10.3207 51.841 11.6997C51.6665 11.7562 51.4825 11.7773 51.2997 11.7618C51.1169 11.7464 50.9391 11.6946 50.7765 11.6096C50.614 11.5246 50.47 11.4081 50.3531 11.2668C50.2361 11.1255 50.1485 10.9624 50.0953 10.7868C50.0421 10.6113 50.0245 10.4269 50.0434 10.2445C50.0623 10.062 50.1174 9.88517 50.2054 9.72427C50.2935 9.56337 50.4127 9.42163 50.5562 9.30735C50.6997 9.19307 50.8645 9.10853 51.041 9.05868C56.253 7.47668 64.918 7.78168 70.394 11.0327C70.5499 11.1251 70.686 11.2474 70.7946 11.3924C70.9033 11.5375 70.9823 11.7026 71.0271 11.8782C71.072 12.0537 71.0818 12.2365 71.056 12.4158C71.0303 12.5952 70.9694 12.7678 70.877 12.9237C70.7845 13.0796 70.6623 13.2157 70.5172 13.3243C70.3722 13.433 70.2071 13.512 70.0315 13.5568C69.8559 13.6017 69.6732 13.6115 69.4938 13.5857C69.3144 13.56 69.1419 13.4991 68.986 13.4067L68.984 13.4057ZM85.647 13.9487C83.099 13.3407 82.647 12.9147 82.647 12.0187C82.647 11.1717 83.447 10.6027 84.629 10.6027C85.9037 10.6482 87.1277 11.1133 88.111 11.9257C88.1289 11.9389 88.1492 11.9484 88.1708 11.9537C88.1923 11.9589 88.2148 11.9599 88.2367 11.9564C88.2587 11.953 88.2797 11.9452 88.2986 11.9336C88.3176 11.922 88.334 11.9067 88.347 11.8887L89.591 10.1347C89.6156 10.0999 89.626 10.057 89.6201 10.0148C89.6141 9.97262 89.5923 9.93429 89.559 9.90768C88.1804 8.78006 86.4467 8.17771 84.666 8.20768C81.915 8.20768 79.993 9.85868 79.993 12.2207C79.993 14.7537 81.651 15.6507 84.516 16.3427C86.953 16.9047 87.365 17.3747 87.365 18.2157C87.365 19.1477 86.533 19.7277 85.194 19.7277C83.6752 19.716 82.2203 19.1151 81.136 18.0517C81.1021 18.0228 81.0584 18.0082 81.014 18.0107C80.9919 18.0121 80.9703 18.018 80.9506 18.028C80.9308 18.038 80.9133 18.0518 80.899 18.0687L79.499 19.7287C79.4709 19.762 79.4569 19.8049 79.4599 19.8484C79.4629 19.8919 79.4826 19.9325 79.515 19.9617C81.0533 21.3554 83.0572 22.1234 85.133 22.1147C88.097 22.1147 90.012 20.4957 90.012 17.9877C90.017 15.8717 88.75 14.6997 85.647 13.9457H85.642L85.647 13.9487ZM96.723 11.4357C96.1053 11.4276 95.4941 11.5627 94.9373 11.8304C94.3806 12.0981 93.8934 12.4912 93.514 12.9787V11.8107C93.5141 11.7888 93.5099 11.7671 93.5016 11.7469C93.4934 11.7266 93.4811 11.7082 93.4657 11.6927C93.4503 11.6771 93.4319 11.6648 93.4117 11.6564C93.3915 11.648 93.3699 11.6437 93.348 11.6437H91.067C91.0451 11.6437 91.0234 11.648 91.0032 11.6564C90.983 11.6648 90.9647 11.6771 90.9492 11.6927C90.9338 11.7082 90.9216 11.7266 90.9133 11.7469C90.905 11.7671 90.9008 11.7888 90.901 11.8107V24.7797C90.901 24.8238 90.9184 24.8661 90.9495 24.8974C90.9806 24.9287 91.0229 24.9464 91.067 24.9467H93.347C93.3911 24.9464 93.4333 24.9287 93.4644 24.8974C93.4955 24.8661 93.513 24.8238 93.513 24.7797V20.6867C93.9064 21.1519 94.3985 21.5237 94.9536 21.7748C95.5087 22.026 96.1128 22.1503 96.722 22.1387C99.11 22.1387 101.527 20.3007 101.527 16.7877C101.527 13.2747 99.113 11.4347 96.727 11.4347L96.723 11.4357ZM98.875 16.7877C98.9149 17.1664 98.8758 17.5494 98.76 17.9122C98.6442 18.275 98.4544 18.6099 98.2024 18.8955C97.9505 19.1811 97.6419 19.4112 97.2964 19.5714C96.9508 19.7315 96.5758 19.8181 96.195 19.8257C95.8133 19.8135 95.438 19.7243 95.0916 19.5634C94.7453 19.4026 94.4349 19.1734 94.1793 18.8897C93.9237 18.606 93.7281 18.2735 93.6041 17.9123C93.4801 17.5511 93.4304 17.1686 93.458 16.7877C93.4303 16.4067 93.4799 16.0241 93.6038 15.6627C93.7277 15.3014 93.9233 14.9688 94.1789 14.685C94.4346 14.4012 94.7449 14.1719 95.0914 14.011C95.4378 13.8501 95.8132 13.7609 96.195 13.7487C96.5742 13.7607 96.947 13.8502 97.2904 14.0117C97.6337 14.1733 97.9404 14.4034 98.1915 14.6879C98.4425 14.9724 98.6327 15.3053 98.7503 15.6661C98.8678 16.0268 98.9102 16.4079 98.875 16.7857V16.7877ZM107.722 11.4357C106.665 11.4556 105.638 11.7872 104.769 12.389C103.901 12.9907 103.229 13.8358 102.839 14.8179C102.449 15.8001 102.357 16.8757 102.576 17.9095C102.796 18.9434 103.315 19.8895 104.07 20.629C104.825 21.3685 105.782 21.8685 106.82 22.0661C107.858 22.2638 108.932 22.1502 109.906 21.7399C110.88 21.3295 111.71 20.6405 112.294 19.7594C112.878 18.8784 113.188 17.8445 113.186 16.7877C113.182 16.0764 113.038 15.3729 112.76 14.7179C112.483 14.0629 112.079 13.4693 111.571 12.9716C111.063 12.4739 110.461 12.0819 109.8 11.8182C109.14 11.5546 108.433 11.4246 107.722 11.4357ZM107.722 19.8437C107.33 19.8401 106.943 19.7571 106.585 19.5999C106.226 19.4426 105.903 19.2143 105.634 18.9287C105.366 18.6431 105.159 18.3062 105.025 17.9382C104.89 17.5702 104.832 17.1788 104.853 16.7877C104.828 16.4004 104.882 16.0121 105.013 15.6467C105.144 15.2814 105.348 14.9468 105.614 14.6638C105.879 14.3807 106.2 14.1552 106.557 14.0013C106.913 13.8473 107.297 13.7681 107.685 13.7687C108.078 13.7714 108.466 13.8537 108.826 14.0104C109.186 14.1672 109.511 14.3953 109.781 14.681C110.05 14.9666 110.259 15.3039 110.395 15.6725C110.531 16.0411 110.591 16.4334 110.571 16.8257C110.595 17.2141 110.54 17.6034 110.407 17.9694C110.275 18.3354 110.069 18.6702 109.802 18.9532C109.535 19.2362 109.212 19.4613 108.854 19.6145C108.497 19.7677 108.111 19.8457 107.722 19.8437ZM119.752 11.6437H117.241V9.07668C117.241 9.0548 117.237 9.03311 117.229 9.01285C117.22 8.99259 117.208 8.97418 117.193 8.95866C117.177 8.94314 117.159 8.93082 117.139 8.92241C117.118 8.91401 117.097 8.90968 117.075 8.90968H114.794C114.75 8.90995 114.708 8.92762 114.676 8.95889C114.645 8.99015 114.627 9.03247 114.627 9.07668V11.6437H113.527C113.505 11.6437 113.483 11.648 113.463 11.6564C113.443 11.6648 113.425 11.6771 113.409 11.6927C113.394 11.7082 113.382 11.7266 113.373 11.7469C113.365 11.7671 113.361 11.7888 113.361 11.8107V13.7717C113.361 13.8158 113.378 13.8581 113.41 13.8894C113.441 13.9207 113.483 13.9384 113.527 13.9387H114.627V19.0127C114.627 21.0617 115.647 22.1017 117.661 22.1017C118.408 22.1196 119.146 21.9358 119.797 21.5697C119.823 21.5556 119.844 21.5348 119.859 21.5094C119.874 21.4841 119.882 21.4551 119.882 21.4257V19.5567C119.882 19.5284 119.875 19.5006 119.861 19.4759C119.847 19.4512 119.827 19.4305 119.803 19.4157C119.779 19.4004 119.751 19.3917 119.723 19.3905C119.695 19.3892 119.666 19.3955 119.641 19.4087C119.227 19.6227 118.768 19.7332 118.302 19.7307C117.571 19.7307 117.243 19.3977 117.243 18.6537V13.9397H119.754C119.776 13.9397 119.798 13.9354 119.818 13.927C119.838 13.9185 119.856 13.9062 119.872 13.8907C119.887 13.8752 119.899 13.8568 119.908 13.8365C119.916 13.8163 119.92 13.7946 119.92 13.7727V11.8127C119.921 11.7908 119.917 11.7691 119.909 11.7487C119.901 11.7283 119.889 11.7098 119.874 11.6942C119.858 11.6786 119.84 11.6662 119.82 11.6579C119.8 11.6496 119.778 11.6454 119.756 11.6457L119.752 11.6437ZM128.499 11.6537V11.3387C128.499 10.4117 128.855 9.99768 129.651 9.99768C130.09 10.0029 130.525 10.083 130.937 10.2347C130.962 10.2431 130.989 10.2455 131.015 10.2415C131.041 10.2375 131.066 10.2273 131.088 10.2117C131.109 10.1961 131.126 10.1757 131.138 10.152C131.15 10.1283 131.156 10.1022 131.156 10.0757V8.14868C131.156 8.11281 131.145 8.07779 131.124 8.04892C131.103 8.02005 131.072 7.9989 131.038 7.98868C130.422 7.80073 129.782 7.70898 129.138 7.71668C127.032 7.71668 125.917 8.90368 125.917 11.1467V11.6297H124.817C124.773 11.6299 124.731 11.6476 124.699 11.6789C124.668 11.7101 124.65 11.7525 124.65 11.7967V13.7677C124.65 13.8119 124.668 13.8542 124.699 13.8855C124.731 13.9167 124.773 13.9344 124.817 13.9347H125.917V21.7597C125.917 21.804 125.935 21.8465 125.966 21.8778C125.997 21.9091 126.04 21.9267 126.084 21.9267H128.364C128.386 21.9268 128.408 21.9226 128.428 21.9142C128.448 21.9059 128.467 21.8936 128.482 21.8781C128.498 21.8625 128.51 21.8441 128.519 21.8237C128.527 21.8034 128.531 21.7817 128.531 21.7597V13.9397H130.661L133.924 21.7637C133.554 22.5847 133.189 22.7487 132.692 22.7487C132.249 22.7377 131.816 22.6145 131.434 22.3907C131.393 22.3702 131.346 22.3659 131.302 22.3787C131.28 22.3859 131.26 22.3976 131.243 22.4131C131.225 22.4286 131.211 22.4475 131.202 22.4687L130.428 24.1687C130.41 24.2072 130.408 24.2511 130.421 24.2914C130.434 24.3317 130.463 24.3655 130.5 24.3857C131.242 24.8063 132.082 25.0217 132.935 25.0097C134.62 25.0097 135.552 24.2237 136.371 22.1097L140.337 11.8817C140.347 11.8566 140.351 11.8294 140.348 11.8026C140.345 11.7757 140.335 11.75 140.32 11.7276C140.305 11.7052 140.285 11.6868 140.261 11.6739C140.238 11.661 140.211 11.6541 140.184 11.6537H137.808C137.773 11.6534 137.739 11.6641 137.711 11.6841C137.682 11.7042 137.66 11.7327 137.649 11.7657L135.216 18.7147L132.547 11.7617C132.535 11.7302 132.514 11.7032 132.486 11.6841C132.458 11.665 132.426 11.6547 132.392 11.6547H128.492L128.499 11.6537ZM123.428 11.6437H121.147C121.103 11.6439 121.061 11.6616 121.029 11.6929C120.998 11.7241 120.98 11.7665 120.98 11.8107V21.7627C120.98 21.7846 120.984 21.8063 120.993 21.8266C121.001 21.8469 121.013 21.8653 121.029 21.8808C121.044 21.8963 121.063 21.9086 121.083 21.917C121.103 21.9254 121.125 21.9297 121.147 21.9297H123.429C123.451 21.9297 123.473 21.9254 123.493 21.917C123.513 21.9086 123.532 21.8963 123.547 21.8808C123.563 21.8653 123.575 21.8469 123.583 21.8266C123.592 21.8063 123.596 21.7846 123.596 21.7627V11.8117C123.596 11.7674 123.578 11.7249 123.547 11.6936C123.516 11.6623 123.473 11.6447 123.429 11.6447L123.428 11.6437ZM122.3 7.11168C121.976 7.11149 121.66 7.20724 121.391 7.38684C121.122 7.56645 120.912 7.82183 120.788 8.12069C120.664 8.41955 120.631 8.74848 120.694 9.06587C120.757 9.38326 120.913 9.67486 121.142 9.9038C121.37 10.1327 121.661 10.2887 121.979 10.3521C122.296 10.4154 122.625 10.3832 122.924 10.2595C123.223 10.1359 123.479 9.92636 123.659 9.65743C123.839 9.3885 123.935 9.07225 123.935 8.74868C123.935 8.53384 123.893 8.32108 123.811 8.12254C123.729 7.924 123.608 7.74357 123.456 7.59156C123.305 7.43955 123.124 7.31894 122.926 7.2366C122.728 7.15426 122.515 7.11181 122.3 7.11168ZM142.286 14.8487C141.968 14.8479 141.657 14.7529 141.393 14.5758C141.129 14.3986 140.923 14.1472 140.802 13.8532C140.681 13.5592 140.649 13.2359 140.711 12.924C140.773 12.6121 140.926 12.3256 141.151 12.1006C141.376 11.8756 141.662 11.7223 141.974 11.6599C142.286 11.5976 142.61 11.629 142.904 11.7502C143.198 11.8714 143.449 12.077 143.627 12.341C143.804 12.605 143.899 12.9156 143.9 13.2337C143.902 13.4462 143.862 13.6571 143.781 13.8538C143.701 14.0506 143.582 14.2294 143.432 14.3798C143.282 14.5301 143.103 14.649 142.906 14.7295C142.709 14.81 142.499 14.8506 142.286 14.8487ZM142.295 11.7887C142.007 11.7859 141.726 11.8687 141.485 12.0266C141.245 12.1844 141.057 12.4102 140.945 12.6752C140.833 12.9402 140.803 13.2324 140.857 13.5147C140.912 13.7971 141.05 14.0567 141.253 14.2607C141.455 14.4647 141.714 14.6038 141.996 14.6603C142.278 14.7169 142.57 14.6883 142.836 14.5782C143.102 14.4681 143.329 14.2815 143.488 14.0421C143.647 13.8027 143.732 13.5213 143.731 13.2337C143.732 13.0443 143.696 12.8566 143.624 12.6814C143.553 12.5061 143.447 12.3468 143.314 12.2125C143.18 12.0782 143.021 11.9716 142.847 11.8988C142.672 11.8261 142.484 11.7887 142.295 11.7887ZM142.651 13.3987L143.106 14.0347H142.722L142.313 13.4517H141.962V14.0347H141.641V12.3487H142.392C142.785 12.3487 143.042 12.5487 143.042 12.8867C143.048 13.0041 143.012 13.1199 142.941 13.2135C142.87 13.3071 142.768 13.3727 142.653 13.3987H142.651ZM142.38 12.6387H141.962V13.1717H142.38C142.588 13.1717 142.713 13.0717 142.713 12.9047C142.713 12.7377 142.587 12.6337 142.379 12.6337L142.38 12.6387Z" fill="#05073C"/>
</g>
</g>
</g>
</g>
<defs>
<clipPath id="clip0_2103_6434">
<rect width="100" height="30" fill="white" transform="translate(45)"/>
</clipPath>
<clipPath id="clip1_2103_6434">
<rect width="100" height="30" fill="white" transform="translate(45)"/>
</clipPath>
<clipPath id="clip2_2103_6434">
<rect width="99" height="30" fill="white" transform="translate(45.5)"/>
</clipPath>
</defs>
</svg>
