<svg width="190" height="30" viewBox="0 0 190 30" fill="none" xmlns="http://www.w3.org/2000/svg">
<g clip-path="url(#clip0_2103_6409)">
<g clip-path="url(#clip1_2103_6409)">
<mask id="mask0_2103_6409" style="mask-type:luminance" maskUnits="userSpaceOnUse" x="45" y="5" width="100" height="20">
<path d="M144.603 5.02105H45V24.4825H144.603V5.02105Z" fill="white"/>
</mask>
<g mask="url(#mask0_2103_6409)">
<path fill-rule="evenodd" clip-rule="evenodd" d="M48.0333 6.85296C48.7778 6.2061 49.643 5.713 50.5789 5.40209C51.5149 5.09118 52.5031 4.96862 53.4867 5.04146C54.4702 5.11431 55.4296 5.38112 56.3096 5.82652C57.1895 6.27192 57.9726 6.88709 58.6137 7.63656C59.9922 9.03061 60.7973 10.8912 60.8699 12.8504C60.9424 14.8096 60.2771 16.7247 59.0055 18.2169L53.1276 24.0948C51.9522 23.3111 49.9932 21.7439 50.7768 20.1759C52.344 18.2169 54.3014 16.6513 55.871 14.6898C57.0464 13.1226 56.2628 9.98738 53.912 9.59558C53.3845 9.41119 52.8184 9.36533 52.2681 9.46238C51.7178 9.55945 51.2016 9.79618 50.769 10.1499C50.3364 10.5036 50.0018 10.9625 49.7974 11.4826C49.5929 12.0027 49.5254 12.5665 49.6013 13.1202C49.6013 15.0792 51.1686 16.2546 52.344 17.4308C51.1686 18.6062 49.6013 19.3898 49.6013 20.9554C48.4259 19.3882 46.4669 18.2128 45.6825 16.2529C44.9661 14.649 44.8084 12.8512 45.2345 11.147C45.6607 9.4428 46.6462 7.93083 48.0333 6.85296Z" fill="#05073C"/>
<path fill-rule="evenodd" clip-rule="evenodd" d="M73.1118 6.85311C73.5036 5.67771 74.679 6.06951 75.4626 6.06951V20.5638H73.1118V19.3916C72.1684 20.1523 70.993 20.5671 69.7811 20.5671C68.5692 20.5671 67.3938 20.1523 66.4503 19.3916C65.3651 18.4008 64.7151 17.0215 64.6417 15.5539C64.5684 14.0861 65.0775 12.6489 66.0585 11.5548C66.9407 10.5947 68.1405 9.98638 69.4363 9.84233C70.7321 9.69829 72.0362 10.0282 73.1077 10.7711L73.1118 6.85311ZM69.5872 11.9474C67.6282 12.3392 66.0626 15.0818 67.6282 17.0416C67.9209 17.4686 68.3208 17.8111 68.7877 18.0347C69.2547 18.2583 69.7722 18.3551 70.2884 18.3153C70.8045 18.2757 71.3011 18.1009 71.7284 17.8085C72.1557 17.5161 72.4984 17.1166 72.7225 16.6498C73.8954 14.69 71.9356 11.9466 69.5848 11.9466L69.5872 11.9474Z" fill="#05073C"/>
<path fill-rule="evenodd" clip-rule="evenodd" d="M77.4219 9.9873H79.7727V10.7709C80.5563 9.5955 82.1235 9.5955 83.6915 9.9873C83.2997 10.7709 82.9079 11.1627 82.9079 11.9463C81.3407 11.5545 79.7735 12.3381 79.7735 13.5135V19.3914C79.3809 20.5709 78.2055 20.5709 77.4219 20.5709V9.9873Z" fill="#05073C"/>
<path fill-rule="evenodd" clip-rule="evenodd" d="M87.2174 9.98834C91.1363 8.42112 95.0543 12.3392 94.2666 16.258C93.4789 20.1769 87.997 22.1359 85.2502 19.3925C82.1158 16.6498 83.2912 10.7719 87.2093 9.98834H87.2174ZM88.3929 11.9474C87.7348 12.1229 87.1348 12.4689 86.6533 12.9504C86.1717 13.432 85.8257 14.032 85.6502 14.69C85.5698 15.1371 85.592 15.5966 85.7151 16.0338C85.8382 16.471 86.059 16.8746 86.3609 17.214C86.6627 17.5534 87.0378 17.8199 87.4576 17.9932C87.8775 18.1666 88.3312 18.2422 88.7847 18.2146C90.3519 18.2146 91.9191 17.0392 91.9191 15.472C91.9191 13.5146 89.9609 11.5555 88.3945 11.9474H88.3929Z" fill="#05073C"/>
<path fill-rule="evenodd" clip-rule="evenodd" d="M95.8389 9.98727H98.1897V10.7709C99.2612 10.028 100.565 9.69802 101.861 9.84206C103.157 9.98611 104.357 10.5944 105.239 11.5545C105.723 12.058 106.099 12.6555 106.344 13.3101C106.588 13.9646 106.696 14.6624 106.66 15.3601C106.624 16.0579 106.445 16.7408 106.135 17.3668C105.824 17.9928 105.389 18.5485 104.855 18.9996C103.288 20.9586 100.153 20.9586 98.1938 19.7832V23.3078C97.802 24.4832 96.6266 24.4832 95.843 24.4832V9.98727H95.8389ZM100.933 11.9463C98.5823 12.3381 97.4085 15.0807 98.5823 16.6488C99.7577 18.6078 102.893 18.6078 103.677 16.6488C105.243 14.6889 103.284 11.9463 100.933 11.9463Z" fill="#05073C"/>
<path fill-rule="evenodd" clip-rule="evenodd" d="M110.729 10.3799C111.721 9.82379 112.864 9.59984 113.993 9.74084C115.121 9.88186 116.174 10.3804 116.999 11.1635C116.607 11.5553 116.215 12.3389 115.432 12.7307C115.066 12.4348 114.637 12.2279 114.178 12.1262C113.719 12.0246 113.243 12.031 112.787 12.145C112.331 12.259 111.908 12.4774 111.55 12.7831C111.193 13.0887 110.912 13.4732 110.729 13.9061C110.559 14.3702 110.498 14.8671 110.551 15.3585C110.604 15.85 110.769 16.3225 111.035 16.7395C111.3 17.1566 111.658 17.5068 112.081 17.763C112.503 18.0192 112.979 18.1745 113.472 18.2168C114.255 18.2168 115.039 17.825 115.823 17.825C116.522 18.1332 117.082 18.6923 117.39 19.3922C114.647 21.743 109.945 20.9594 108.769 17.4332C107.202 15.0816 108.377 11.9455 110.729 10.3799Z" fill="#05073C"/>
<path fill-rule="evenodd" clip-rule="evenodd" d="M117.391 17.0407C116.217 13.5145 118.958 9.59569 122.485 9.59569C123.896 9.65726 125.244 10.1941 126.311 11.1189C127.379 12.0438 128.102 13.3023 128.363 14.6899V20.5678C127.188 20.5678 126.404 20.5678 125.62 19.7842C122.878 21.7432 118.571 20.176 117.392 17.0416L117.391 17.0407ZM122.485 11.9465C121.945 12.048 121.438 12.2772 121.005 12.6148C120.572 12.9524 120.226 13.3887 119.996 13.8873C119.766 14.3859 119.658 14.9323 119.682 15.4808C119.706 16.0294 119.861 16.5643 120.134 17.0407C121.701 18.9998 124.837 18.608 125.62 16.6489C125.821 16.1323 125.894 15.5748 125.834 15.0238C125.774 14.4728 125.582 13.9443 125.274 13.4831C124.967 13.0219 124.553 12.6415 124.068 12.3741C123.582 12.1066 123.039 11.96 122.485 11.9465Z" fill="#05073C"/>
<path fill-rule="evenodd" clip-rule="evenodd" d="M129.93 9.98834H132.281V10.772C133.456 9.20474 136.2 9.59654 137.767 11.1638C139.726 8.81293 143.645 9.59654 144.429 12.3392C144.82 14.69 144.429 17.4334 144.429 19.7843C144.429 20.5679 143.253 20.5679 142.078 20.5679C142.078 18.217 142.47 15.8654 142.078 13.5187C142.001 13.1073 141.783 12.7357 141.461 12.4682C141.139 12.2008 140.734 12.0544 140.315 12.0544C139.897 12.0544 139.492 12.2008 139.17 12.4682C138.848 12.7357 138.63 13.1073 138.553 13.5187V20.5679H136.202C136.267 18.0798 136.136 15.5903 135.811 13.1228C135.419 11.5556 132.676 11.9474 132.676 13.5146C132.351 15.8494 132.22 18.2072 132.284 20.5638H129.93V9.98834Z" fill="#05073C"/>
</g>
</g>
</g>
<defs>
<clipPath id="clip0_2103_6409">
<rect width="100" height="30" fill="white" transform="translate(45)"/>
</clipPath>
<clipPath id="clip1_2103_6409">
<rect width="100" height="20.4918" fill="white" transform="translate(45 4.7541)"/>
</clipPath>
</defs>
</svg>
