<svg width="40" height="761" viewBox="0 0 40 761" fill="none" xmlns="http://www.w3.org/2000/svg">
<g clip-path="url(#clip0_2103_6800)">
<g clip-path="url(#clip1_2103_6800)">
<g clip-path="url(#clip2_2103_6800)">
<path d="M14.253 0.0650026C14.253 0.0650026 20.5713 19.6346 21.0121 37.5958C21.453 55.8251 21.0121 71.3736 18.8081 93.624C15.8693 123.917 3.96733 182.358 10.4326 213.455C16.8979 244.552 17.1917 245.892 21.306 261.709C26.008 279.402 35.4121 315.324 34.9712 359.825C34.5304 407.275 10.5795 493.328 11.755 528.714C11.902 532.467 12.9305 546.407 14.6938 556.862C16.4571 567.049 20.2774 582.061 21.5999 602.435C22.1876 611.014 23.2162 624.686 22.9223 640.502C22.7754 644.524 22.3346 657.391 20.5713 672.672C18.8081 687.952 16.0162 702.16 15.1346 715.028C13.5183 742.64 15.8693 760.065 15.8693 760.065H0L9.06291e-06 0.0650024L14.253 0.0650026ZM16.604 60.9186C15.1346 62.7952 16.0162 66.2801 16.0162 72.4459C16.0162 78.6117 14.253 88.7986 14.3999 87.9944C14.5469 87.1902 16.604 79.684 17.1918 71.9097C17.9264 63.8674 18.0734 59.3102 16.604 60.9186ZM12.6367 110.245C12.6367 110.245 12.3428 116.679 11.3142 125.257C10.1387 133.836 7.19997 152.869 6.1714 165.737C4.55508 187.719 6.1714 208.093 6.31834 206.217C6.46528 204.072 5.43671 180.481 7.93466 159.035C8.96322 150.188 11.1673 134.104 11.902 125.793C12.7836 116.947 12.6367 110.245 12.6367 110.245ZM12.4897 263.585C11.4612 259.028 19.3958 299.24 21.4529 313.18C22.3346 318.809 23.804 329.8 24.3917 339.987C24.9795 350.442 24.9795 363.846 25.1264 363.578C25.4203 363.578 26.3019 348.03 25.1264 333.553C23.9509 319.077 23.5101 319.613 22.7754 313.18C21.5999 302.993 13.5183 268.143 12.4897 263.585ZM10.1387 226.322C10.1387 225.786 9.55097 228.467 11.755 239.19C13.9591 249.913 16.8979 257.151 17.1917 257.688C17.3387 258.224 14.5469 248.305 12.7836 239.994C11.0204 231.952 10.1387 226.591 10.1387 226.322ZM8.81629 1.40533C8.96322 1.67346 10.4326 6.49878 12.4897 14.2731C14.5469 22.0473 16.604 32.7704 16.4571 32.2343C16.4571 31.6981 15.5754 22.8516 12.7836 12.3965C9.99179 1.94153 8.66935 1.13727 8.81629 1.40533ZM17.0448 676.157C16.7509 675.889 16.7509 681.25 15.2815 688.22C13.8122 695.19 12.9305 702.696 12.3428 709.13C11.1673 719.853 12.4897 740.495 12.6367 739.423C12.7836 738.619 12.1959 717.441 13.6652 705.913C14.3999 700.016 14.3999 699.479 16.0162 690.633C17.6326 681.786 17.4856 676.425 17.0448 676.157ZM13.5183 564.368C13.3714 563.296 11.1673 554.986 9.69791 541.85C8.08159 528.714 8.96322 517.991 8.52241 517.991C8.08159 517.991 7.19996 520.672 8.08159 534.612C8.96322 548.552 13.6652 565.441 13.5183 564.368ZM9.84485 568.121C9.99178 567.585 7.93465 559.007 7.3469 552.841C6.90609 546.675 6.61221 547.748 6.46527 547.748C6.31834 547.748 6.1714 550.696 6.75915 554.986C7.49384 559.543 9.69791 568.658 9.84485 568.121ZM6.46527 509.144C6.75915 508.876 7.64078 499.762 9.11016 494.132C10.5795 488.502 9.99178 489.307 9.84485 489.039C9.69791 488.77 8.66934 491.183 7.93465 495.472C7.05303 499.762 6.1714 509.412 6.46527 509.144ZM16.3101 584.742C16.7509 585.01 17.0448 583.938 16.0162 579.649C14.9877 575.36 14.106 572.679 14.253 573.751C14.3999 574.823 14.8407 576.164 15.4285 580.453C16.0162 585.01 15.8693 584.474 16.3101 584.742ZM18.2203 667.578C18.2203 668.114 19.3958 661.949 19.5428 658.732C19.6897 655.515 19.6897 653.37 19.2489 653.37C18.8081 653.37 18.5142 653.638 18.6611 657.659C18.8081 661.949 18.2203 667.042 18.2203 667.578ZM31.0039 352.051C31.1509 352.319 30.5631 358.485 30.5631 372.157C30.5631 385.561 27.0366 408.615 25.4203 418.266C23.804 427.917 31.1509 391.458 31.4447 374.033C31.7386 356.608 30.857 351.783 31.0039 352.051Z" fill="#EFFAFC"/>
<path d="M26.4491 37.3279C26.3022 37.596 26.8899 49.6595 26.4491 56.6295C25.4205 76.1992 21.7471 102.203 22.1879 101.13C22.6287 100.058 26.743 64.4038 27.0369 55.5572C27.6246 42.4214 26.4491 37.0598 26.4491 37.3279Z" fill="#EFFAFC"/>
<path d="M14.3997 150.457C14.2528 150.993 12.9303 162.52 12.6364 175.924C12.3426 189.328 13.5181 209.97 13.3711 208.897C13.2242 208.093 10.7262 193.081 11.6079 173.243C12.4895 153.405 14.5466 149.92 14.3997 150.457Z" fill="#EFFAFC"/>
<path d="M19.69 211.846C19.543 212.114 18.2206 206.485 18.0737 203.268C17.9267 200.051 18.0737 197.906 18.5145 197.906C18.9553 197.906 19.2492 198.174 19.1022 202.195C18.9553 206.753 19.8369 211.578 19.69 211.846Z" fill="#EFFAFC"/>
<path d="M15.5754 221.229C15.4284 221.229 17.3386 233.025 18.808 238.118C20.1304 243.212 23.3631 254.739 23.3631 254.471C23.51 254.203 21.0121 243.212 19.5427 237.582C18.0733 231.952 15.7223 221.229 15.5754 221.229Z" fill="#EFFAFC"/>
<path d="M39.2323 345.885C39.0854 346.153 39.6731 358.217 39.2323 365.187C38.2037 384.756 34.5303 410.76 34.9711 409.688C35.4119 408.615 39.5262 372.961 39.8201 364.114C40.4078 350.979 39.3792 345.617 39.2323 345.885Z" fill="#EFFAFC"/>
<path d="M28.3594 647.741C28.3594 647.741 27.9186 644.524 28.2125 639.966C28.5064 635.409 29.5349 624.418 29.2411 617.984C28.6533 606.725 25.2737 598.146 25.4207 599.219C25.4207 600.291 28.6533 610.746 28.2125 622.273C28.0656 627.099 27.4778 635.945 27.6247 640.234C27.7717 644.524 28.3594 647.741 28.3594 647.741Z" fill="#EFFAFC"/>
<path d="M18.5143 557.667C18.6612 557.13 17.3388 552.305 16.8979 546.139C16.6041 539.973 16.4571 540.51 16.1633 540.51C16.0163 540.51 15.5755 545.335 16.1633 549.624C16.8979 553.914 18.3673 558.203 18.5143 557.667Z" fill="#EFFAFC"/>
<path d="M19.3959 718.245C19.249 718.245 19.3959 706.718 20.1306 700.284C20.8653 693.85 22.9224 686.88 23.0694 686.88C23.2163 686.88 21.8939 694.118 21.0122 700.552C20.1306 706.718 19.5429 717.977 19.3959 718.245Z" fill="#EFFAFC"/>
</g>
</g>
</g>
<defs>
<clipPath id="clip0_2103_6800">
<rect width="40" height="760.13" fill="white"/>
</clipPath>
<clipPath id="clip1_2103_6800">
<rect width="40" height="760.13" fill="white"/>
</clipPath>
<clipPath id="clip2_2103_6800">
<rect width="40" height="760" fill="white" transform="translate(0 0.0650024)"/>
</clipPath>
</defs>
</svg>
