<svg width="190" height="30" viewBox="0 0 190 30" fill="none" xmlns="http://www.w3.org/2000/svg">
<g clip-path="url(#clip0_2103_6389)">
<g clip-path="url(#clip1_2103_6389)">
<g clip-path="url(#clip2_2103_6389)">
<mask id="mask0_2103_6389" style="mask-type:luminance" maskUnits="userSpaceOnUse" x="46" y="0" width="97" height="30">
<path d="M142.877 0.37579H46.5386V29.3812H142.877V0.37579Z" fill="white"/>
</mask>
<g mask="url(#mask0_2103_6389)">
<path fill-rule="evenodd" clip-rule="evenodd" d="M106.308 23.0603C100.731 27.183 92.6211 29.3799 85.6253 29.3799C76.2938 29.4263 67.2802 25.9919 60.3457 19.7476C59.8392 19.2745 60.2776 18.6318 60.9226 19.0045C67.6379 22.8691 75.1565 25.1271 82.8899 25.6019C90.6232 26.0767 98.3615 24.7554 105.499 21.7415C106.443 21.3711 107.221 22.3888 106.308 23.0603Z" fill="#05073C"/>
<path fill-rule="evenodd" clip-rule="evenodd" d="M108.639 20.3904C107.93 19.4777 103.909 19.9508 102.117 20.1873C101.576 20.2554 101.474 19.7823 101.982 19.4443C105.193 17.1804 110.43 17.8554 111.039 18.5997C111.649 19.3439 110.871 24.6158 107.863 27.1162C107.39 27.4877 106.95 27.2847 107.153 26.7781C107.828 25.0889 109.349 21.3366 108.639 20.3904Z" fill="#05073C"/>
<path fill-rule="evenodd" clip-rule="evenodd" d="M102.218 3.56027V1.36797C102.215 1.29589 102.226 1.22383 102.252 1.15645C102.278 1.08906 102.317 1.02786 102.368 0.976825C102.419 0.925792 102.481 0.886044 102.548 0.860201C102.615 0.834358 102.687 0.822997 102.76 0.82682H112.557C112.705 0.823069 112.848 0.877728 112.956 0.979009C113.064 1.08029 113.128 1.22004 113.134 1.36797V3.22681C113.134 3.53142 112.864 3.93643 112.391 4.61143L107.322 11.8437C109.254 11.7397 111.178 12.1464 112.903 13.023C113.053 13.1086 113.178 13.2312 113.267 13.3792C113.355 13.5271 113.404 13.6952 113.41 13.8676V16.1995C113.41 16.5376 113.071 16.9091 112.7 16.706C111.101 15.8784 109.326 15.4492 107.525 15.455C105.724 15.4608 103.952 15.9015 102.358 16.7395C102.277 16.7683 102.191 16.7773 102.106 16.7655C102.021 16.7537 101.94 16.7215 101.871 16.6718C101.801 16.622 101.744 16.5562 101.706 16.4797C101.667 16.4033 101.647 16.3186 101.648 16.233V13.9991C101.615 13.4768 101.745 12.9571 102.02 12.5118L107.905 4.09681H102.801C102.653 4.10056 102.51 4.0459 102.402 3.94461C102.294 3.84333 102.23 3.70359 102.224 3.55565L102.218 3.56027ZM66.4965 17.1757H63.5184C63.3851 17.1623 63.2599 17.1055 63.1621 17.014C63.0644 16.9224 62.9994 16.8012 62.9773 16.6691V1.39797C62.983 1.25004 63.0467 1.11029 63.1547 1.00901C63.2627 0.907729 63.4061 0.85307 63.5542 0.856821H66.3234C66.4605 0.858686 66.5919 0.911623 66.6921 1.00531C66.7921 1.099 66.8537 1.22669 66.8646 1.36336V3.35719H66.9326C67.1957 2.53299 67.7141 1.81376 68.4128 1.30343C69.1114 0.793082 69.9542 0.518041 70.8194 0.518041C71.6845 0.518041 72.5274 0.793082 73.2261 1.30343C73.9246 1.81376 74.4429 2.53299 74.7061 3.35719C75.0026 2.50746 75.562 1.77425 76.3034 1.26388C77.0446 0.75351 77.9291 0.492525 78.8288 0.518745C79.4966 0.505271 80.1579 0.651649 80.7577 0.945698C81.3574 1.23974 81.8782 1.67293 82.2765 2.20913C83.2226 3.49336 83.0196 5.3522 83.0196 7.00797V16.6737C83.0138 16.8217 82.9501 16.9614 82.8421 17.0627C82.7341 17.164 82.5907 17.2187 82.4426 17.2149H79.5026C79.3619 17.2065 79.2291 17.1467 79.1294 17.047C79.0297 16.9473 78.97 16.8145 78.9615 16.6737V8.56334C79.0068 7.60525 78.984 6.64516 78.8934 5.69028C78.8314 5.2838 78.6123 4.91789 78.2831 4.67143C77.9541 4.42497 77.5413 4.31766 77.1338 4.37259C76.7459 4.38378 76.3697 4.50812 76.0515 4.73035C75.7334 4.95257 75.487 5.26298 75.343 5.62333C75.0982 6.58289 75.007 7.57524 75.073 8.56334V16.6737C75.0674 16.8217 75.0036 16.9614 74.8956 17.0627C74.7876 17.164 74.6441 17.2187 74.4961 17.2149H71.5226C71.3819 17.2065 71.2491 17.1467 71.1494 17.047C71.0497 16.9473 70.99 16.8145 70.9815 16.6737V8.56334C70.9815 6.87296 71.2515 4.33914 69.1561 4.33914C67.0273 4.33914 67.0942 6.77258 67.0942 8.56334V16.6737C67.0729 16.8182 66.9992 16.9498 66.8869 17.0433C66.7748 17.1368 66.6321 17.1856 66.4861 17.1803L66.4965 17.1757ZM121.583 0.514132C126.011 0.514132 128.411 4.29874 128.411 9.1322C128.411 13.796 125.774 17.5137 121.583 17.5137C117.258 17.5137 114.891 13.7291 114.891 8.9972C114.858 4.23182 117.256 0.514132 121.583 0.514132ZM121.583 3.6572C119.391 3.6572 119.251 6.66527 119.251 8.52411C119.251 10.383 119.218 14.3707 121.55 14.3707C123.848 14.3707 123.983 11.1595 123.983 9.20027C124.025 7.83453 123.877 6.46965 123.544 5.14452C123.451 4.70195 123.202 4.30783 122.841 4.03521C122.481 3.76259 122.033 3.62996 121.582 3.66182L121.583 3.6572ZM134.121 17.1757H131.148C131.007 17.1672 130.874 17.1075 130.774 17.0077C130.675 16.908 130.615 16.7753 130.606 16.6345V1.32991C130.625 1.18999 130.694 1.06157 130.8 0.968445C130.906 0.875318 131.042 0.823765 131.183 0.823333H133.953C134.078 0.827538 134.199 0.872805 134.297 0.952177C134.395 1.03155 134.464 1.14068 134.494 1.26296V3.59488H134.562C135.406 1.4995 136.556 0.519872 138.618 0.519872C139.304 0.488702 139.986 0.637601 140.597 0.951754C141.207 1.2659 141.725 1.73438 142.099 2.31064C142.876 3.52795 142.876 5.58873 142.876 7.07604V16.7083C142.856 16.8446 142.786 16.9685 142.679 17.056C142.573 17.1433 142.437 17.1881 142.3 17.1814H139.326C139.198 17.1693 139.076 17.117 138.979 17.0322C138.882 16.9473 138.814 16.834 138.785 16.7083V8.39488C138.785 6.70565 138.988 4.27219 136.926 4.27219C136.553 4.28961 136.192 4.41334 135.887 4.6288C135.581 4.84424 135.344 5.14246 135.202 5.48833C134.841 6.41281 134.679 7.40349 134.729 8.39488V16.6414C134.71 16.7899 134.638 16.9267 134.527 17.0261C134.415 17.1257 134.271 17.1812 134.121 17.1826V17.1757ZM94.4115 9.87526C94.5219 10.9636 94.3349 12.0615 93.8703 13.0518C93.6818 13.4432 93.3903 13.7758 93.0271 14.0141C92.6638 14.2524 92.2425 14.3873 91.8084 14.4041C90.6546 14.4041 89.983 13.5249 89.983 12.2407C89.983 9.7022 92.2469 9.2326 94.4103 9.2326L94.4115 9.87526ZM97.4196 17.1445C97.3232 17.2286 97.203 17.2804 97.0757 17.2927C96.9484 17.3049 96.8205 17.2768 96.7099 17.2126C96.0216 16.6555 95.4378 15.9804 94.9861 15.2187C94.3968 15.9392 93.646 16.5105 92.7946 16.8864C91.9432 17.2623 91.0151 17.4322 90.0857 17.3822C89.4759 17.418 88.8655 17.3214 88.2966 17.0989C87.7277 16.8765 87.2137 16.5334 86.7898 16.0935C86.3659 15.6535 86.0424 15.1271 85.8413 14.5503C85.6403 13.9734 85.5664 13.3599 85.6249 12.7518C85.5899 11.7124 85.8761 10.6875 86.4445 9.81663C87.0129 8.94574 87.8359 8.27121 88.8015 7.88491C90.6154 7.28326 92.5027 6.93078 94.4115 6.83719V6.46566C94.5126 5.72346 94.3828 4.96816 94.0399 4.30219C93.8456 4.05026 93.5941 3.84827 93.3061 3.71301C93.0182 3.57777 92.7021 3.51314 92.3842 3.52449C91.8341 3.47649 91.2856 3.63246 90.843 3.96267C90.4005 4.29289 90.0948 4.77429 89.9842 5.31527C89.9161 5.58527 89.7534 5.85641 89.4776 5.85641L86.6046 5.55182C86.5352 5.54207 86.4685 5.5184 86.4084 5.48224C86.3484 5.44608 86.2964 5.39817 86.2553 5.34139C86.2142 5.28461 86.185 5.2201 86.1696 5.15177C86.154 5.08344 86.1525 5.01268 86.1649 4.94373C86.8411 1.42911 89.9842 0.381416 92.8226 0.381416C94.4538 0.311663 96.0543 0.84063 97.3226 1.86873C98.7753 3.22104 98.6403 5.04526 98.6403 7.00564V11.636C98.6593 12.6649 99.0564 13.6508 99.7561 14.4053C99.9592 14.6753 99.9926 15.0133 99.7561 15.183C99.1088 15.693 98.0253 16.6391 97.4196 17.1445ZM55.378 9.87526C55.4885 10.9636 55.3014 12.0615 54.8369 13.0518C54.6484 13.4432 54.3569 13.7758 53.9936 14.0141C53.6303 14.2524 53.209 14.3873 52.775 14.4041C51.6211 14.4041 50.9496 13.5249 50.9496 12.2407C50.9496 9.7022 53.2134 9.2326 55.3769 9.2326L55.378 9.87526ZM58.3526 17.1445C58.2563 17.2286 58.1361 17.2804 58.0088 17.2927C57.8815 17.3049 57.7536 17.2768 57.643 17.2126C56.9547 16.6555 56.371 15.9804 55.9192 15.2187C55.3299 15.9392 54.5791 16.5105 53.7277 16.8864C52.8762 17.2623 51.9482 17.4322 51.0188 17.3822C50.409 17.418 49.7986 17.3214 49.2297 17.0989C48.6607 16.8765 48.1467 16.5334 47.7229 16.0935C47.2991 15.6535 46.9755 15.1271 46.7744 14.5503C46.5733 13.9734 46.4995 13.3599 46.558 12.7518C46.523 11.7124 46.8092 10.6875 47.3776 9.81663C47.946 8.94574 48.769 8.27121 49.7346 7.88491C51.5485 7.28326 53.4357 6.93078 55.3446 6.83719V6.46566C55.4456 5.72346 55.3159 4.96816 54.973 4.30219C54.7788 4.05026 54.5272 3.84827 54.2392 3.71301C53.9513 3.57777 53.6352 3.51314 53.3172 3.52449C52.7672 3.47649 52.2187 3.63246 51.7761 3.96267C51.3335 4.29289 51.0279 4.77429 50.9173 5.31527C50.8492 5.58527 50.6807 5.85641 50.4107 5.85641L47.5376 5.55182C47.4683 5.54207 47.4015 5.5184 47.3415 5.48224C47.2815 5.44608 47.2294 5.39817 47.1884 5.34139C47.1473 5.28461 47.1181 5.2201 47.1026 5.15177C47.0871 5.08344 47.0855 5.01268 47.098 4.94373C47.7742 1.42911 50.9173 0.381416 53.7557 0.381416C55.3869 0.311663 56.9874 0.84063 58.2557 1.86873C59.7084 3.22104 59.5734 5.04526 59.5734 7.00564V11.636C59.5924 12.6648 59.9896 13.6507 60.6892 14.4053C60.8923 14.6753 60.9257 15.0133 60.6892 15.183C60.0465 15.6895 58.9653 16.6357 58.3573 17.1445H58.3526Z" fill="#05073C"/>
</g>
</g>
</g>
</g>
<defs>
<clipPath id="clip0_2103_6389">
<rect width="100" height="30" fill="white" transform="translate(45)"/>
</clipPath>
<clipPath id="clip1_2103_6389">
<rect width="100" height="30" fill="white" transform="translate(45)"/>
</clipPath>
<clipPath id="clip2_2103_6389">
<rect width="96.9231" height="30" fill="white" transform="translate(46.5386)"/>
</clipPath>
</defs>
</svg>
