<svg width="30" height="40" viewBox="0 0 30 40" fill="none" xmlns="http://www.w3.org/2000/svg">
<mask id="mask0_2103_6519" style="mask-type:luminance" maskUnits="userSpaceOnUse" x="-6" y="0" width="41" height="40">
<path d="M34.6484 0H-5.35156V40H34.6484V0Z" fill="white"/>
</mask>
<g mask="url(#mask0_2103_6519)">
<path d="M26.5625 7.42223H24.6093V2.73363C24.6093 1.85887 24.1861 1.03059 23.4773 0.518008C22.7685 0.00542957 21.8493 -0.137149 21.0185 0.136914L1.87782 6.44988C0.75461 6.82043 0 7.86402 0 9.04668V30.8854V37.2656C0 38.7733 1.22664 40 2.73438 40H26.5625C28.0702 40 29.2968 38.7733 29.2968 37.2656V10.1566C29.2968 8.64895 28.0702 7.42223 26.5625 7.42223ZM26.9531 37.2656C26.9531 37.481 26.7779 37.6562 26.5625 37.6562H2.73438C2.51899 37.6562 2.34375 37.481 2.34375 37.2656V29.7136V10.1566C2.34375 9.94121 2.51899 9.76598 2.73438 9.76598H26.5625C26.7779 9.76598 26.9531 9.94121 26.9531 10.1566V37.2656ZM21.7526 2.36269C21.9176 2.30832 22.0435 2.37348 22.1039 2.41715C22.1643 2.46082 22.2657 2.55996 22.2657 2.73363V7.4223H6.41234L21.7526 2.36269Z" fill="#4A43C4"/>
<path d="M6.83596 23.3188H8.25646H22.461C23.1082 23.3188 23.6329 22.7941 23.6329 22.1469C23.6329 21.4997 23.1082 20.975 22.461 20.975H22.1215C21.6164 17.7408 19.0546 15.179 15.8204 14.6739V14.0867C15.8204 13.4395 15.2957 12.9148 14.6485 12.9148C14.0013 12.9148 13.4766 13.4395 13.4766 14.0867V14.6739C10.2424 15.179 7.68056 17.7408 7.17546 20.975H6.83596C6.18876 20.975 5.66406 21.4997 5.66406 22.1469C5.66406 22.7941 6.18876 23.3188 6.83596 23.3188ZM14.6485 16.9267C17.1241 16.9267 19.2027 18.6591 19.7361 20.975H9.56086C10.0943 18.6591 12.173 16.9267 14.6485 16.9267Z" fill="#4A43C4"/>
<path d="M7.29006 26.4847C6.64286 26.4847 6.11816 27.0094 6.11816 27.6566C6.11816 28.3038 6.64286 28.8285 7.29006 28.8285H12.9151C13.5623 28.8285 14.087 28.3038 14.087 27.6566C14.087 27.0094 13.5623 26.4847 12.9151 26.4847H7.29006Z" fill="#4A43C4"/>
<path d="M22.1679 31.1722H7.12893C6.48173 31.1722 5.95703 31.6969 5.95703 32.3441C5.95703 32.9913 6.48173 33.516 7.12893 33.516H22.1679C22.8151 33.516 23.3398 32.9913 23.3398 32.3441C23.3398 31.6969 22.8151 31.1722 22.1679 31.1722Z" fill="#4A43C4"/>
</g>
</svg>
