<svg width="190" height="30" viewBox="0 0 190 30" fill="none" xmlns="http://www.w3.org/2000/svg">
<g clip-path="url(#clip0_2103_6400)">
<g clip-path="url(#clip1_2103_6400)">
<mask id="mask0_2103_6400" style="mask-type:luminance" maskUnits="userSpaceOnUse" x="45" y="3" width="100" height="25">
<path d="M144.2 3.3442H45V27.0044H144.2V3.3442Z" fill="white"/>
</mask>
<g mask="url(#mask0_2103_6400)">
<path d="M68.2988 25.431H62.7964L61.1096 21.3719H51.9446L50.4108 25.431H45L53.2663 4.92853H59.1892L68.2988 25.431ZM56.3036 9.82732L53.2916 17.7936H59.6048L56.3036 9.82732ZM88.2831 4.92853H92.7325V25.431H87.6217V12.6213L82.0904 19.0539H81.3084L75.7771 12.6213V25.431H70.6626V4.92853H75.1205L81.6988 12.5346L88.2831 4.92853ZM105.683 4.92853C113.169 4.92853 117.016 9.58757 117.016 15.2093C117.016 21.1008 113.288 25.431 105.112 25.431H96.6337V4.92853H105.683ZM101.747 21.6731H105.083C110.224 21.6731 111.757 18.1792 111.757 15.178C111.757 11.6599 109.863 8.68516 105.023 8.68516H101.747V21.6731ZM127.183 9.78998L120.739 3.3442H144.2V26.8069L137.755 20.3623V9.78998H127.183ZM127.176 11.0815L120.542 17.7165V27.0045H129.829L136.464 20.3695H127.176V11.0815Z" fill="#05073C"/>
</g>
</g>
</g>
<defs>
<clipPath id="clip0_2103_6400">
<rect width="100" height="30" fill="white" transform="translate(45)"/>
</clipPath>
<clipPath id="clip1_2103_6400">
<rect width="100" height="24.0964" fill="white" transform="translate(45 2.95181)"/>
</clipPath>
</defs>
</svg>
