<svg width="40" height="38" viewBox="0 0 40 38" fill="none" xmlns="http://www.w3.org/2000/svg">
<mask id="mask0_2103_6481" style="mask-type:luminance" maskUnits="userSpaceOnUse" x="0" y="-2" width="40" height="41">
<path d="M40 -1.34949H0V38.6505H40V-1.34949Z" fill="white"/>
</mask>
<g mask="url(#mask0_2103_6481)">
<path d="M38.8281 34.9571C37.5348 34.9571 36.9513 34.6665 36.2126 34.2987C35.9077 34.1469 35.588 33.988 35.2188 33.8463L39.177 23.4337C39.485 22.6232 39.4339 21.7165 39.0366 20.9458C38.6394 20.1752 37.9304 19.6076 37.0916 19.3884L34.3662 18.6763V10.5023C34.3662 8.78691 32.9705 7.39125 31.2551 7.39125H25.8761V4.36672C25.8761 1.9589 23.9172 0 21.5094 0H18.4907C16.0829 0 14.124 1.9589 14.124 4.36672V7.39117H8.745C7.02953 7.39117 5.63391 8.78681 5.63391 10.5023V18.6763L2.90844 19.3884C2.06961 19.6076 1.36063 20.1752 0.963437 20.9458C0.56625 21.7165 0.515 22.6232 0.823125 23.4337L4.78125 33.8465C4.41219 33.9881 4.0925 34.1469 3.78773 34.2987C3.04891 34.6665 2.46539 34.9572 1.17188 34.9572C0.524687 34.9572 0 35.4819 0 36.129C0 36.7762 0.524687 37.3009 1.17188 37.3009C3.01656 37.3009 3.98125 36.8206 4.83234 36.3969C5.57117 36.029 6.15469 35.7384 7.4482 35.7384C8.74172 35.7384 9.32524 36.029 10.0641 36.3969C10.9152 36.8206 11.8798 37.3009 13.7245 37.3009C15.5691 37.3009 16.5337 36.8206 17.3849 36.3969C18.1237 36.029 18.7072 35.7384 20.0005 35.7384C21.2939 35.7384 21.8773 36.029 22.6161 36.3969C23.4672 36.8206 24.4318 37.3009 26.2764 37.3009C28.121 37.3009 29.0856 36.8206 29.9367 36.3969C30.6755 36.029 31.259 35.7384 32.5523 35.7384C33.8457 35.7384 34.4291 36.029 35.1679 36.3969C36.019 36.8206 36.9836 37.3009 38.8282 37.3009C39.4754 37.3009 40.0001 36.7762 40.0001 36.129C40.0001 35.4819 39.4753 34.9571 38.8281 34.9571ZM16.4677 4.36672C16.4677 3.25125 17.3752 2.34375 18.4907 2.34375H21.5094C22.6248 2.34375 23.5323 3.25125 23.5323 4.36672V7.39117H16.4677V4.36672ZM7.97758 10.5023C7.97758 10.0792 8.3218 9.73501 8.74492 9.73501H31.255C31.6781 9.73501 32.0223 10.0792 32.0223 10.5023V18.064L20.2962 15.0001C20.102 14.9494 19.8979 14.9494 19.7037 15.0001L7.9775 18.064L7.97758 10.5023ZM28.892 34.2987C28.1532 34.6665 27.5697 34.9571 26.2764 34.9571C24.9831 34.9571 24.3996 34.6665 23.6609 34.2987C22.8098 33.8749 21.8452 33.3946 20.0005 33.3946C18.1559 33.3946 17.1913 33.8749 16.3402 34.2987C15.6014 34.6665 15.0179 34.9571 13.7245 34.9571C12.4311 34.9571 11.8475 34.6665 11.1088 34.2987C10.2577 33.8749 9.29297 33.3946 7.44828 33.3946C7.33523 33.3946 7.22555 33.3965 7.11891 33.3999L3.01383 22.6008C2.91531 22.3417 2.99211 22.1256 3.04664 22.0198C3.10117 21.914 3.23266 21.7262 3.50086 21.6561L20 17.3451L36.4991 21.6562C36.7673 21.7262 36.8988 21.914 36.9534 22.0198C37.0079 22.1256 37.0847 22.3417 36.9862 22.6009L32.8812 33.4C32.7747 33.3965 32.6652 33.3947 32.5523 33.3947C30.7077 33.3946 29.743 33.875 28.892 34.2987Z" fill="#4A43C4"/>
<path d="M30.8342 23.3422L20.2963 20.5888C20.1021 20.5381 19.8981 20.5381 19.7038 20.5888L9.16596 23.3422C8.53979 23.5058 8.16479 24.1461 8.32838 24.7723C8.49197 25.3985 9.13229 25.7734 9.75846 25.6099L20.0001 22.9339L30.2417 25.6099C30.341 25.6359 30.4407 25.6482 30.5388 25.6482C31.059 25.6482 31.5342 25.2992 31.6717 24.7723C31.8354 24.1461 31.4604 23.5058 30.8342 23.3422Z" fill="#4A43C4"/>
</g>
</svg>
