<svg width="190" height="30" viewBox="0 0 190 30" fill="none" xmlns="http://www.w3.org/2000/svg">
<g clip-path="url(#clip0_2103_6425)">
<g clip-path="url(#clip1_2103_6425)">
<g clip-path="url(#clip2_2103_6425)">
<mask id="mask0_2103_6425" style="mask-type:luminance" maskUnits="userSpaceOnUse" x="47" y="0" width="96" height="30">
<path d="M142.109 0.37579H47.6924V29.0431H142.109V0.37579Z" fill="white"/>
</mask>
<g mask="url(#mask0_2103_6425)">
<path d="M47.6924 20.6489V0.79579H51.1793V20.6489H47.6924ZM60.1066 6.24655C59.12 6.22433 58.1388 6.39975 57.221 6.76251C56.3032 7.12525 55.4672 7.668 54.7624 8.35877C54.0575 9.04955 53.498 9.87437 53.1168 10.7847C52.7356 11.695 52.5404 12.6723 52.5427 13.6593C52.545 14.6462 52.7448 15.6227 53.1302 16.5312C53.5157 17.4397 54.0791 18.2619 54.7871 18.9494C55.4952 19.6368 56.3337 20.1757 57.2532 20.5341C58.1727 20.8926 59.1547 21.0635 60.1412 21.0366C61.12 21.0463 62.0911 20.8615 62.9982 20.4932C63.9051 20.1248 64.7298 19.58 65.4247 18.8904C66.1194 18.2009 66.6705 17.3803 67.0457 16.4761C67.4211 15.572 67.6131 14.6024 67.6108 13.6235C67.6085 12.6445 67.412 11.6759 67.0325 10.7735C66.653 9.87112 66.0981 9.05307 65.4 8.36677C64.702 7.68046 63.8746 7.13955 62.966 6.7754C62.0573 6.41125 61.0854 6.23226 60.1066 6.24655ZM60.0662 9.60655C60.99 9.60363 61.8862 9.92095 62.6023 10.5045C63.3183 11.088 63.8101 11.9017 63.9937 12.807C64.1774 13.7123 64.0416 14.6533 63.6096 15.4697C63.1775 16.2861 62.4757 16.9276 61.6239 17.2848C60.772 17.6422 59.8227 17.6932 58.9375 17.4292C58.0522 17.1653 57.2859 16.6027 56.7688 15.8372C56.2517 15.0718 56.0158 14.1508 56.1014 13.231C56.187 12.3113 56.5887 11.4496 57.2382 10.7927C57.9876 10.0399 59.004 9.61358 60.0662 9.60655ZM76.4093 6.24655C75.4227 6.22433 74.4415 6.39975 73.5237 6.76251C72.6059 7.12525 71.7699 7.668 71.065 8.35877C70.3602 9.04955 69.8007 9.87437 69.4194 10.7847C69.0383 11.695 68.8431 12.6723 68.8454 13.6593C68.8477 14.6462 69.0474 15.6227 69.4329 16.5312C69.8184 17.4397 70.3817 18.2619 71.0898 18.9494C71.798 19.6368 72.6365 20.1757 73.556 20.5341C74.4755 20.8926 75.4574 21.0635 76.4439 21.0366C77.4293 21.0606 78.4093 20.8854 79.3253 20.5216C80.2413 20.1578 81.0744 19.6127 81.7748 18.9193C82.4751 18.2257 83.0282 17.3979 83.4009 16.4855C83.7736 15.573 83.9583 14.5948 83.9439 13.6093C84.0418 12.2496 83.6373 10.9014 82.8074 9.82002L83.7743 9.48886V6.65848H78.8278C78.0483 6.38838 77.2296 6.2492 76.4047 6.24655H76.4093ZM76.3689 9.60655C77.2926 9.60418 78.1885 9.92194 78.9042 10.5058C79.6199 11.0896 80.1112 11.9034 80.2944 12.8087C80.4777 13.7139 80.3415 14.6548 79.9093 15.471C79.4769 16.2872 78.775 16.9283 77.9232 17.2853C77.0714 17.6423 76.1221 17.6931 75.237 17.429C74.3519 17.1648 73.5857 16.6022 73.0688 15.8368C72.5519 15.0713 72.3162 14.1504 72.4019 13.2308C72.4875 12.3111 72.8892 11.4495 73.5385 10.7927C74.2885 10.0393 75.3059 9.61297 76.3689 9.60655ZM80.4074 21.6158C80.4074 22.6832 79.9833 23.7068 79.2286 24.4617C78.4739 25.2164 77.4502 25.6404 76.3828 25.6404C75.3153 25.6404 74.2917 25.2164 73.5369 24.4617C72.7822 23.7068 72.3582 22.6832 72.3582 21.6158H68.8193C68.8028 22.6105 68.9895 23.5981 69.3682 24.5181C69.7468 25.438 70.3094 26.271 71.0213 26.9658C71.7332 27.6607 72.5796 28.2029 73.5084 28.5591C74.4373 28.9153 75.4291 29.078 76.4232 29.0373C77.4078 29.0625 78.3876 28.8884 79.3034 28.5256C80.2192 28.1628 81.0523 27.6188 81.7528 26.9262C82.4532 26.2335 83.0064 25.4065 83.3793 24.4948C83.7524 23.583 83.9373 22.6053 83.9232 21.6204L80.4074 21.6158ZM85.3481 20.6454V6.65848H88.8362V20.6489L85.3481 20.6454ZM92.2216 20.6454V9.79232H90.3512V6.65848H92.2216V2.36271H95.7085V6.65848H97.6297V9.79232H95.7085V20.6489L92.2216 20.6454ZM89.3935 2.68348C89.3935 3.1399 89.2582 3.58607 89.0046 3.96556C88.7511 4.34506 88.3906 4.64085 87.969 4.81551C87.5473 4.99018 87.0833 5.03587 86.6356 4.94683C86.188 4.85778 85.7768 4.638 85.4541 4.31527C85.1313 3.99253 84.9115 3.58134 84.8225 3.13368C84.7335 2.68604 84.7792 2.22204 84.9538 1.80037C85.1285 1.37869 85.4243 1.01828 85.8038 0.764705C86.1833 0.511133 86.6294 0.37579 87.0858 0.37579C87.6978 0.37579 88.2848 0.61892 88.7176 1.0517C89.1504 1.48447 89.3935 2.07144 89.3935 2.68348ZM105.47 6.23732C104.484 6.21733 103.505 6.39885 102.591 6.77076C101.678 7.14268 100.851 7.69715 100.159 8.4002C99.4678 9.10326 98.9272 9.94009 98.5707 10.8594C98.2141 11.7787 98.049 12.7612 98.0855 13.7466C98.0451 14.7299 98.2117 15.7108 98.5746 16.6257C98.9375 17.5404 99.4885 18.3689 100.192 19.0572C100.896 19.7454 101.736 20.2782 102.658 20.621C103.581 20.9638 104.565 21.1089 105.547 21.047C106.733 21.0845 107.912 20.8668 109.006 20.409C110.1 19.9512 111.083 19.2637 111.888 18.3931L109.557 16.0589C108.511 17.1541 107.101 17.8296 105.592 17.9581C104.717 17.9925 103.858 17.7212 103.161 17.1909C102.464 16.6605 101.973 15.9042 101.773 15.0516H112.64V14.0916C112.64 10.2596 110.422 6.23848 105.476 6.23848L105.47 6.23732ZM105.355 9.30771C106.211 9.25845 107.056 9.52914 107.724 10.0673C108.393 10.6054 108.837 11.3726 108.972 12.22H101.668C101.84 11.3763 102.305 10.6206 102.981 10.0874C103.657 9.55417 104.5 9.2779 105.36 9.30771H105.355ZM121.357 21.0481C120.385 21.049 119.421 20.8584 118.522 20.4871C117.623 20.1157 116.806 19.571 116.117 18.8837C114.727 17.4959 113.944 15.6126 113.942 13.6479C113.94 11.6833 114.719 9.7983 116.107 8.40767C117.494 7.01706 119.378 6.2347 121.342 6.23271C122.485 6.22417 123.614 6.47085 124.649 6.95474C125.684 7.43864 126.597 8.14753 127.323 9.02963L124.885 11.4527C124.449 10.9192 123.907 10.482 123.294 10.1685C122.681 9.85514 122.009 9.67242 121.322 9.63194C120.792 9.61876 120.265 9.71296 119.773 9.90886C119.281 10.1048 118.834 10.3983 118.458 10.7718C118.082 11.1453 117.786 11.591 117.587 12.082C117.389 12.573 117.291 13.0993 117.302 13.6289C117.288 14.1597 117.382 14.6878 117.577 15.1816C117.772 15.6756 118.065 16.125 118.437 16.5035C118.81 16.8818 119.255 17.1812 119.746 17.3841C120.236 17.5868 120.763 17.6886 121.294 17.6835C121.987 17.6475 122.664 17.4667 123.283 17.1526C123.901 16.8387 124.447 16.3983 124.885 15.8604L127.342 18.2835C126.615 19.1627 125.699 19.8678 124.663 20.347C123.627 20.8262 122.497 21.0674 121.356 21.0527L121.357 21.0481ZM128.613 20.6593V0.74502H132.1V8.06155C132.624 7.45851 133.278 6.98113 134.012 6.66477C134.746 6.34839 135.542 6.20113 136.34 6.23386C139.992 6.23386 142.109 8.94886 142.109 12.4208V20.6593H138.615V12.9527C138.668 12.5272 138.627 12.0954 138.495 11.6875C138.363 11.2796 138.144 10.9054 137.852 10.5911C137.56 10.2768 137.204 10.0299 136.807 9.86787C136.41 9.70578 135.982 9.63235 135.554 9.65271C135.089 9.61568 134.62 9.68048 134.182 9.84262C133.744 10.0047 133.347 10.2603 133.017 10.5916C132.688 10.9228 132.435 11.3218 132.275 11.7608C132.115 12.1998 132.053 12.6684 132.093 13.1339V20.665H128.613V20.6593Z" fill="#05073C"/>
</g>
</g>
</g>
</g>
<defs>
<clipPath id="clip0_2103_6425">
<rect width="100" height="30" fill="white" transform="translate(45)"/>
</clipPath>
<clipPath id="clip1_2103_6425">
<rect width="100" height="30" fill="white" transform="translate(45)"/>
</clipPath>
<clipPath id="clip2_2103_6425">
<rect width="94.6154" height="30" fill="white" transform="translate(47.6924)"/>
</clipPath>
</defs>
</svg>
