<svg width="40" height="40" viewBox="0 0 40 40" fill="none" xmlns="http://www.w3.org/2000/svg">
<mask id="mask0_2103_6506" style="mask-type:luminance" maskUnits="userSpaceOnUse" x="0" y="-1" width="40" height="41">
<path d="M40 -0.0778809H0V39.9221H40V-0.0778809Z" fill="white"/>
</mask>
<g mask="url(#mask0_2103_6506)">
<path d="M38.8281 37.5003H37.1305L33.9388 31.1169C33.7403 30.7199 33.3345 30.4691 32.8906 30.4691H25.2841L19.8119 14.1374L32.0367 10.0508C32.7366 9.81683 33.05 8.99948 32.6821 8.35706C29.5294 2.85097 23.0448 -0.0258318 15.7352 1.94526L15.3527 0.800731C15.1475 0.186981 14.4837 -0.144504 13.8697 0.0608091C13.2559 0.266043 12.9246 0.929949 13.1298 1.54378L13.5124 2.68831C6.49539 5.50573 3.03492 11.6988 3.82836 18.0026C3.92109 18.7391 4.66445 19.2007 5.36266 18.9677L17.5891 14.8806L22.8123 30.4691H11.3936L1.93477 23.6588C1.40945 23.2806 0.677109 23.3998 0.298984 23.925C-0.0792188 24.4502 0.0400781 25.1826 0.565234 25.5608L9.63859 32.0936L7.89641 37.5004H1.17188C0.524687 37.5004 0 38.0251 0 38.6723C0 39.3195 0.524687 39.8442 1.17188 39.8442H38.8281C39.4753 39.8442 40 39.3195 40 38.6723C40 38.0251 39.4753 37.5003 38.8281 37.5003ZM15.3553 4.50667C15.3551 4.50675 15.3555 4.50659 15.3553 4.50667C15.3631 4.50777 16.7474 3.86183 19.2116 6.2562C20.485 7.49347 21.6102 9.14112 22.3487 10.8181L13.5643 13.7547C12.6348 9.79175 13.4205 5.15425 15.3553 4.50667ZM29.8552 8.30886L24.5795 10.0724C23.5683 7.69722 21.8255 5.24144 19.8177 3.67667C23.7927 3.53917 27.4656 5.09308 29.8552 8.30886ZM11.292 6.52636C10.6238 9.00198 10.7191 12.0123 11.3352 14.4999L6.05781 16.2641C6.03383 12.3547 7.94828 8.86589 11.292 6.52636ZM32.1663 32.8128L34.5101 37.5003H27.6401L26.0695 32.8128H32.1663ZM11.8692 32.8128H23.5977L25.1683 37.5003H10.3588L11.8692 32.8128Z" fill="#4A43C4"/>
</g>
</svg>
