<svg width="40" height="607" viewBox="0 0 40 607" fill="none" xmlns="http://www.w3.org/2000/svg">
<g clip-path="url(#clip0_2103_6632)">
<g clip-path="url(#clip1_2103_6632)">
<path d="M14.1945 0.530029C14.1945 0.530029 20.5774 16.1376 21.0227 30.4624C21.4681 45.001 21.0227 57.4015 18.7962 75.1471C15.8273 99.3068 3.80376 145.915 10.3351 170.717C16.8664 195.518 17.1632 196.587 21.3196 209.201C26.0696 223.312 35.5698 251.962 35.1244 287.453C34.6791 325.296 10.4835 393.927 11.671 422.148C11.8195 425.141 12.8585 436.26 14.6398 444.598C16.4211 452.722 20.2805 464.695 21.6165 480.945C22.2102 487.786 23.2493 498.69 22.9524 511.304C22.804 514.511 22.3587 524.774 20.5774 536.96C18.7962 549.147 15.9757 560.479 15.0851 570.741C13.4523 592.762 15.8273 606.66 15.8273 606.66H-0.204102L-0.204094 0.530029L14.1945 0.530029ZM16.5695 49.0632C15.0851 50.5598 15.9757 53.3392 15.9757 58.2566C15.9757 63.1742 14.1945 71.2986 14.3429 70.6573C14.4914 70.0159 16.5695 64.0293 17.1632 57.829C17.9054 51.415 18.0539 47.7804 16.5695 49.0632ZM12.5617 88.4028C12.5617 88.4028 12.2648 93.5341 11.2257 100.376C10.0382 107.217 7.06943 122.398 6.03035 132.66C4.39752 150.192 6.03035 166.441 6.17879 164.944C6.32723 163.234 5.28815 144.419 7.81162 127.315C8.85069 120.26 11.0773 107.431 11.8195 100.803C12.7101 93.7479 12.5617 88.4028 12.5617 88.4028ZM12.4132 210.698C11.3742 207.063 19.3899 239.133 21.468 250.252C22.3587 254.741 23.8431 263.507 24.4368 271.632C25.0306 279.97 25.0306 290.66 25.179 290.446C25.4759 290.446 26.3665 278.046 25.179 266.5C23.9915 254.955 23.5462 255.382 22.804 250.252C21.6165 242.126 13.4523 214.332 12.4132 210.698ZM10.0382 180.979C10.0382 180.552 9.44445 182.689 11.671 191.242C13.8976 199.794 16.8664 205.567 17.1632 205.994C17.3117 206.422 14.4914 198.511 12.7101 191.883C10.9289 185.469 10.0382 181.193 10.0382 180.979ZM8.70226 1.59904C8.85069 1.81284 10.3351 5.66126 12.4132 11.8615C14.4914 18.0618 16.5695 26.6139 16.4211 26.1863C16.4211 25.7587 15.5304 18.7032 12.7101 10.365C9.88977 2.02666 8.55382 1.38524 8.70226 1.59904ZM17.0148 539.74C16.7179 539.526 16.7179 543.802 15.2335 549.361C13.7492 554.92 12.8585 560.906 12.2648 566.037C11.0773 574.59 12.4132 591.052 12.5617 590.198C12.7101 589.556 12.1164 572.665 13.6007 563.472C14.3429 558.769 14.3429 558.34 15.9757 551.285C17.6086 544.23 17.4601 539.953 17.0148 539.74ZM13.4523 450.585C13.3039 449.729 11.0773 443.101 9.59289 432.625C7.96006 422.148 8.85069 413.597 8.40537 413.597C7.96005 413.597 7.06942 415.734 7.96005 426.853C8.85069 437.97 13.6007 451.439 13.4523 450.585ZM9.74133 453.578C9.88976 453.15 7.81161 446.308 7.21786 441.391C6.77255 436.473 6.47566 437.329 6.32722 437.329C6.17878 437.329 6.03035 439.68 6.6241 443.101C7.3663 446.736 9.59289 454.005 9.74133 453.578ZM6.32722 406.541C6.6241 406.327 7.51474 399.057 8.99913 394.568C10.4835 390.078 9.88976 390.719 9.74133 390.506C9.59289 390.292 8.55381 392.216 7.81161 395.637C6.92098 399.057 6.03035 406.754 6.32722 406.541ZM16.2726 466.833C16.7179 467.047 17.0148 466.191 15.9757 462.771C14.9367 459.35 14.046 457.212 14.1945 458.067C14.3429 458.923 14.7882 459.992 15.382 463.412C15.9757 467.047 15.8273 466.62 16.2726 466.833ZM18.2023 532.898C18.2023 533.325 19.3899 528.409 19.5384 525.843C19.6868 523.277 19.6868 521.567 19.2415 521.567C18.7962 521.567 18.4993 521.781 18.6477 524.987C18.7962 528.409 18.2023 532.471 18.2023 532.898ZM31.1166 281.253C31.2651 281.466 30.6712 286.384 30.6712 297.288C30.6712 307.978 27.1087 326.365 25.4759 334.062C23.8431 341.759 31.2651 312.682 31.5619 298.784C31.8588 284.887 30.9682 281.039 31.1166 281.253Z" fill="#FAF9FD"/>
<path d="M26.515 30.2488C26.3666 30.4627 26.9603 40.0838 26.515 45.6427C25.4759 61.2502 21.7649 81.9891 22.2102 81.1338C22.6556 80.2786 26.8119 51.8429 27.1088 44.7875C27.7025 34.3111 26.515 30.0351 26.515 30.2488Z" fill="#FAF9FD"/>
<path d="M14.3427 120.473C14.1943 120.9 12.8583 130.094 12.5614 140.784C12.2646 151.475 13.4521 167.937 13.3036 167.082C13.1552 166.441 10.6317 154.468 11.5224 138.647C12.413 122.825 14.4911 120.046 14.3427 120.473Z" fill="#FAF9FD"/>
<path d="M19.687 169.434C19.5385 169.647 18.2026 165.158 18.0542 162.592C17.9057 160.027 18.0542 158.317 18.4995 158.317C18.9448 158.317 19.2417 158.53 19.0932 161.737C18.9448 165.372 19.8354 169.22 19.687 169.434Z" fill="#FAF9FD"/>
<path d="M15.5305 176.917C15.382 176.917 17.3118 186.324 18.7962 190.387C20.1321 194.449 23.3978 203.642 23.3978 203.429C23.5462 203.215 21.0228 194.449 19.5384 189.959C18.054 185.469 15.6789 176.917 15.5305 176.917Z" fill="#FAF9FD"/>
<path d="M39.429 276.335C39.2806 276.549 39.8743 286.17 39.429 291.729C38.3899 307.337 34.679 328.076 35.1243 327.22C35.5696 326.365 39.7259 297.93 40.0229 290.873C40.6166 280.397 39.5774 276.121 39.429 276.335Z" fill="#FAF9FD"/>
<path d="M28.4441 517.077C28.4441 517.077 27.9988 514.511 28.2957 510.876C28.5926 507.242 29.6317 498.476 29.3348 493.345C28.741 484.365 25.327 477.523 25.4754 478.379C25.4754 479.233 28.741 487.572 28.2957 496.766C28.1473 500.614 27.5535 507.67 27.702 511.091C27.8504 514.511 28.4441 517.077 28.4441 517.077Z" fill="#FAF9FD"/>
<path d="M18.4994 445.24C18.6478 444.812 17.3118 440.963 16.8664 436.046C16.5696 431.129 16.4211 431.556 16.1243 431.556C15.9758 431.556 15.5305 435.404 16.1243 438.826C16.8664 442.246 18.3508 445.667 18.4994 445.24Z" fill="#FAF9FD"/>
<path d="M19.3901 573.307C19.2417 573.307 19.3901 564.114 20.1323 558.982C20.8745 553.851 22.9526 548.292 23.1011 548.292C23.2495 548.292 21.9136 554.065 21.0229 559.196C20.1323 564.114 19.5386 573.094 19.3901 573.307Z" fill="#FAF9FD"/>
</g>
</g>
<defs>
<clipPath id="clip0_2103_6632">
<rect width="40" height="606.13" fill="white" transform="translate(0 0.530029)"/>
</clipPath>
<clipPath id="clip1_2103_6632">
<rect width="40.4087" height="606.13" fill="white" transform="translate(-0.204102 0.530029)"/>
</clipPath>
</defs>
</svg>
